<?xml version="1.0" encoding="utf-8"?>
<svg version="1.1" id="dark_mode_night_bg" xmlns="http://www.w3.org/2000/svg" xmlns:xlink="http://www.w3.org/1999/xlink" x="0px" y="0px" viewBox="0 0 115 65" style="enable-background:new 0 0 115 65;" xml:space="preserve">
<path d="M0 32.481C0 14.5422 14.5422 0 32.481 0H82.0571C99.9959 0 114.538 14.5422 114.538 32.481C114.538 50.4197 99.9959 64.9619 82.0571 64.9619H32.481C14.5422 64.9619 0 50.4197 0 32.481Z" fill="url(#paint0_linear)"/>
<path d="M17.95 38.8917C17.95 40.0718 16.9933 41.0286 15.8131 41.0286C14.6329 41.0286 13.6762 40.0718 13.6762 38.8917C13.6762 37.7115 14.6329 36.7548 15.8131 36.7548C16.9933 36.7548 17.95 37.7115 17.95 38.8917Z" fill="white"/>
<path d="M44.4476 28.2071C44.4476 29.1512 43.6822 29.9166 42.7381 29.9166C41.7939 29.9166 41.0286 29.1512 41.0286 28.2071C41.0286 27.2629 41.7939 26.4976 42.7381 26.4976C43.6822 26.4976 44.4476 27.2629 44.4476 28.2071Z" fill="white"/>
<path d="M57.269 18.8047C57.269 19.7489 56.5036 20.5143 55.5595 20.5143C54.6154 20.5143 53.85 19.7489 53.85 18.8047C53.85 17.8606 54.6154 17.0952 55.5595 17.0952C56.5036 17.0952 57.269 17.8606 57.269 18.8047Z" fill="white"/>
<path d="M25.7456 15.9227C26.0687 15.3248 26.9265 15.3248 27.2496 15.9227L28.6008 18.4232C28.7285 18.6596 28.9601 18.8222 29.2258 18.8621L32.0787 19.2907C32.7833 19.3965 33.0567 20.2674 32.539 20.757L30.5597 22.6287C30.353 22.8242 30.2571 23.1098 30.3039 23.3905L30.7481 26.0498C30.8621 26.7329 30.1591 27.261 29.5348 26.9611L26.8678 25.6797C26.6338 25.5673 26.3614 25.5673 26.1274 25.6797L23.4604 26.9611C22.8362 27.261 22.1331 26.7329 22.2472 26.0498L22.6913 23.3905C22.7382 23.1098 22.6423 22.8242 22.4355 22.6287L20.4562 20.757C19.9385 20.2674 20.2119 19.3965 20.9166 19.2906L23.7694 18.8621C24.0352 18.8222 24.2667 18.6596 24.3944 18.4232L25.7456 15.9227Z" fill="white"/>
<path d="M42.8438 41.5367C43.1685 40.9459 44.0173 40.9459 44.342 41.5367L45.1821 43.0654C45.3109 43.2997 45.5418 43.4602 45.8063 43.4993L47.5231 43.7528C48.2323 43.8575 48.5052 44.7363 47.9802 45.2244L46.833 46.2911C46.6221 46.4872 46.5241 46.7763 46.5723 47.0602L46.8353 48.6083C46.951 49.2896 46.2523 49.8195 45.6275 49.5243L43.958 48.7357C43.7268 48.6265 43.4589 48.6265 43.2278 48.7357L41.5583 49.5243C40.9334 49.8195 40.2348 49.2896 40.3505 48.6083L40.6135 47.0602C40.6617 46.7763 40.5637 46.4872 40.3528 46.2911L39.2055 45.2244C38.6805 44.7363 38.9535 43.8576 39.6627 43.7528L41.3794 43.4993C41.6439 43.4602 41.8749 43.2997 42.0036 43.0654L42.8438 41.5367Z" fill="white"/>
<defs>
<linearGradient id="paint0_linear" x1="57.269" y1="0" x2="57.269" y2="64.9619" gradientUnits="userSpaceOnUse">
<stop offset="0.0296739" stop-color="#040507"/>
<stop offset="0.312196" stop-color="#323F62"/>
<stop offset="0.717554" stop-color="#252F4B"/>
<stop offset="0.963225" stop-color="#040507"/>
</linearGradient>
</defs>
</svg>
