<?xml version="1.0" encoding="utf-8"?>
<svg version="1.1" id="logo_heroi" xmlns="http://www.w3.org/2000/svg" xmlns:xlink="http://www.w3.org/1999/xlink" x="0px" y="0px" viewBox="0 0 300 97" style="enable-background:new 0 0 300 97;" xml:space="preserve">
<path fill-rule="evenodd" clip-rule="evenodd" d="M48.803 1.804C47.88 0.601335 46.4378 0 44.4765 0C42.3998 0 40.2654 1.0639 38.0733 3.1917C35.8812 5.3195 33.6314 8.18741 31.3239 11.7954C29.1318 15.3109 26.882 19.4277 24.5746 24.1459C22.2671 28.7716 20.075 33.6285 17.9983 38.7167C15.4601 44.7301 13.0949 50.6972 10.9028 56.618C8.7107 62.5389 6.80704 67.9971 5.19181 72.9928C3.57658 77.896 2.30747 82.0591 1.38448 85.4821C0.461494 88.8126 0 90.8941 0 91.7268C0 93.1144 0.461494 94.3634 1.38448 95.4735C2.30747 96.4912 3.74964 97 5.71099 97C7.09547 97 8.53764 96.3524 10.0375 95.0572C11.6527 93.6695 13.3833 91.773 15.2293 89.3677C17.0753 86.9623 19.0366 84.0944 21.1134 80.7639C23.3055 77.4335 25.6706 73.8255 28.2088 69.9399C30.9778 66.2394 33.4583 63.1402 35.6504 60.6423C37.9579 58.052 39.9769 55.9704 41.7075 54.3977C43.5535 52.7325 45.111 51.4835 46.3802 50.6509C47.6493 49.8183 48.6876 49.217 49.4952 48.8469C49.1491 49.9571 48.7453 51.021 48.2838 52.0386C47.8223 53.0563 47.3031 54.2589 46.7263 55.6466C46.1494 56.9418 45.3995 58.5145 44.4765 60.3648C43.6689 62.2151 42.6882 64.5279 41.5345 67.3033C39.9192 70.8188 38.5924 74.1493 37.5541 77.2947C36.6311 80.4401 36.1696 83.308 36.1696 85.8984C36.1696 88.7663 36.9772 91.1254 38.5924 92.9757C39.4001 93.9008 40.6692 94.8259 42.3998 95.7511C44.1304 96.5837 46.4955 97 49.4952 97C53.4179 97 57.1099 96.2136 60.5711 94.6409C64.0323 93.0682 67.2051 91.0329 70.0894 88.535C71.1713 87.6341 72.2157 86.7031 73.2226 85.7421C74.0362 89.0121 75.9645 91.562 79.0074 93.392C83.1608 95.7974 88.6988 97.0001 95.6212 97.0001C100.005 97.0001 104.332 96.1674 108.601 94.5022C112.87 92.837 116.85 90.7554 120.542 88.2576C124.234 85.6672 127.58 82.8918 130.579 79.9314C133.579 76.8785 136.002 74.0568 137.848 71.4664C138.004 71.2153 138.135 70.9855 138.238 70.777C139.215 69.2788 140.449 67.3345 141.939 64.9442C143.67 62.0763 145.516 58.9309 147.477 55.5079C148.054 55.6004 148.573 55.6467 149.035 55.6467H150.765C152.496 55.6467 154.169 55.5541 155.784 55.3691C157.399 55.0916 158.899 54.7678 160.284 54.3977C157.284 61.4287 154.803 67.5346 152.842 72.7153C150.996 77.8036 150.073 82.1054 150.073 85.6209C150.073 88.6738 150.996 91.3567 152.842 93.6695C154.688 95.8899 157.976 97 162.706 97C166.629 97 170.321 96.2137 173.782 94.6409C177.243 93.0682 180.416 91.0329 183.301 88.5351C184.621 87.4357 185.885 86.2914 187.094 85.1024C187.912 87.6463 189.281 89.9007 191.202 91.8655C194.663 95.2885 200.259 97 207.989 97C212.027 97 215.834 96.3987 219.411 95.196C222.987 93.9008 226.275 92.1893 229.275 90.0615C232.852 90.0615 236.428 89.5527 240.005 88.535C243.581 87.5174 246.927 86.176 250.042 84.5107C250.535 84.2428 251.019 83.9695 251.496 83.6908C251.412 84.3928 251.37 85.0362 251.37 85.6209C251.37 89.0439 252.293 91.7268 254.139 93.6695C255.87 95.5198 259.158 96.63 264.004 97C267.926 97 271.618 96.2136 275.079 94.6409C278.541 93.0682 281.713 91.0329 284.598 88.5351C287.597 86.0372 290.309 83.3081 292.732 80.3476C295.154 77.2947 297.346 74.3343 299.308 71.4664C299.539 71.0963 299.712 70.7725 299.827 70.495C299.942 70.2175 300 69.8937 300 69.5236C300 68.4135 299.423 67.4421 298.269 66.6095C297.231 65.7768 296.02 65.3605 294.635 65.3605C293.712 65.3605 292.847 65.5456 292.039 65.9156C291.232 66.2857 290.597 66.8407 290.136 67.5808C287.136 72.2065 283.963 76.2771 280.617 79.7926C277.387 83.2156 273.233 85.9447 268.157 87.98C269.08 85.2046 270.291 82.1979 271.791 78.9599C273.406 75.6295 274.906 72.299 276.291 68.9685C277.791 65.5455 279.06 62.2613 280.098 59.1159C281.252 55.9704 281.829 53.195 281.829 50.7897C281.829 49.4945 281.656 48.1993 281.31 46.9042C281.079 45.609 280.56 44.4526 279.752 43.4349C279.06 42.3248 278.079 41.4459 276.81 40.7983C275.541 40.1507 273.868 39.8269 271.791 39.8269C269.368 39.8269 267.753 40.752 266.946 42.6023C265.1 46.3953 263.254 50.4197 261.408 54.6753C259.562 58.8383 257.889 62.9089 256.389 66.887C256.315 67.0827 256.242 67.2777 256.17 67.4719C256.146 67.5078 256.122 67.5441 256.099 67.5808C255.061 69.1535 253.677 70.7263 251.946 72.299C250.215 73.7792 248.427 75.1669 246.581 76.4621C244.851 77.6648 243.12 78.6361 241.389 79.3762C239.774 80.1163 238.447 80.5327 237.409 80.6252C239.601 77.3872 241.274 73.8717 242.428 70.0787C243.581 66.1931 244.158 62.4001 244.158 58.6996C244.158 56.4792 243.87 54.2589 243.293 52.0386C242.716 49.8183 241.793 47.8293 240.524 46.0715C239.255 44.2213 237.582 42.7411 235.505 41.6309C233.429 40.4282 230.948 39.8269 228.064 39.8269C224.718 39.8269 221.603 40.6595 218.718 42.3247C215.949 43.99 213.527 46.3028 211.45 49.2632C207.412 49.7258 203.835 51.021 200.72 53.1488C197.605 55.1841 194.951 57.6357 192.759 60.5036C191.085 62.8159 189.711 65.2786 188.636 67.8917C185.696 72.3911 182.591 76.4044 179.32 79.9314C175.974 83.4469 171.821 86.1297 166.86 87.98C168.014 84.9271 169.398 81.6891 171.013 78.2661C172.628 74.7506 174.128 71.3276 175.513 67.9972C176.897 64.5742 178.051 61.3825 178.974 58.4221C180.012 55.3691 180.532 52.825 180.532 50.7897C180.532 49.4945 180.359 48.1994 180.012 46.9042C179.782 45.609 179.262 44.4526 178.455 43.4349C177.763 42.3248 176.782 41.4459 175.513 40.7983C174.244 40.1507 172.571 39.8269 170.494 39.8269C169.571 39.8269 168.763 40.012 168.071 40.382C167.494 40.6595 166.918 41.0296 166.341 41.4922L164.956 42.6023C164.264 43.1574 163.283 43.7587 162.014 44.4063C160.86 45.0539 159.418 45.6553 157.688 46.2103C155.957 46.6729 153.996 46.9967 151.804 47.1817C152.957 44.5914 154.111 42.186 155.265 39.9657C156.419 37.6529 156.995 35.2938 156.995 32.8884C156.995 31.2232 156.361 29.7893 155.092 28.5866C153.938 27.2914 152.323 26.6438 150.246 26.6438C147.592 26.6438 145.054 27.1989 142.631 28.309C140.209 29.3267 138.074 30.7144 136.228 32.4721C134.382 34.1374 132.882 36.0339 131.729 38.1617C130.575 40.2895 129.998 42.371 129.998 44.4063C129.998 46.3491 130.517 48.1994 131.556 49.9571C132.709 51.6223 134.555 52.825 137.093 53.5651C135.363 56.5255 133.69 59.3009 132.075 61.8913C130.575 64.4817 129.421 66.3782 128.613 67.5808C128.514 67.7406 128.425 67.8917 128.347 68.0342C126.995 69.8669 125.201 71.9361 122.965 74.2418C120.657 76.6472 118.004 78.96 115.004 81.1803C112.004 83.3081 108.716 85.1121 105.139 86.5923C101.678 87.98 98.044 88.6739 94.2367 88.6739C91.8139 88.6739 90.1986 88.4888 89.391 88.1188C88.6988 87.6562 88.3526 87.0086 88.3526 86.176C88.3526 85.3434 88.5834 84.187 89.0449 82.7068C89.5064 81.1341 89.9102 79.7926 90.2563 78.6825C93.7175 78.1274 97.1787 77.0635 100.64 75.4908C104.101 73.918 107.216 71.9753 109.985 69.6624C112.754 67.3496 114.946 64.8055 116.561 62.0301C118.292 59.1622 119.157 56.2018 119.157 53.1488C119.157 51.6686 118.927 50.1422 118.465 48.5694C118.004 46.9967 117.254 45.609 116.215 44.4063C115.292 43.1112 114.023 42.0935 112.408 41.3534C110.908 40.5208 109.12 40.1045 107.043 40.1045C103.351 40.1045 100.005 40.8446 97.0057 42.3248C94.1213 43.805 91.3524 45.7478 88.6988 48.1531C83.6854 52.7091 79.3714 59.1197 75.7566 67.3849C75.7121 67.4487 75.669 67.514 75.6273 67.5808C72.6276 72.2065 69.4549 76.2771 66.109 79.7926C62.8786 83.2155 58.7251 85.9447 53.6487 87.98C54.4563 85.0196 55.5523 82.0591 56.9368 79.0987C58.4367 76.1383 59.8789 73.1779 61.2633 70.2175C62.6478 67.257 63.8016 64.2504 64.7245 61.1974C65.7629 58.1445 66.2821 55.0916 66.2821 52.0386C66.2821 50.2809 65.9937 48.6619 65.4168 47.1817C64.9553 45.7015 64.1477 44.4063 62.9939 43.2961C61.9556 42.186 60.5134 41.3071 58.6674 40.6595C56.8215 40.0119 54.514 39.6881 51.745 39.6881C47.3608 39.6881 42.3421 42.0009 36.6888 46.6266C37.7271 43.8512 38.9963 40.567 40.4961 36.774C42.1113 32.9809 43.6112 29.1416 44.9957 25.2561C46.4955 21.3705 47.7646 17.7163 48.803 14.2933C49.8414 10.7778 50.3605 7.90987 50.3605 5.68956C50.3605 4.20934 49.8414 2.91416 48.803 1.804ZM277.502 33.4435C275.541 33.4435 273.926 33.0272 272.657 32.1946C271.387 31.2694 270.753 30.0205 270.753 28.4478C270.753 27.0601 271.157 25.7649 271.964 24.5622C272.887 23.3596 273.983 22.2957 275.252 21.3705C276.637 20.3529 278.137 19.5665 279.752 19.0114C281.483 18.4564 283.213 18.1788 284.944 18.1788C286.905 18.1788 288.463 18.5951 289.616 19.4278C290.886 20.2604 291.52 21.4631 291.52 23.0358C291.52 24.4235 291.116 25.7649 290.309 27.0601C289.501 28.2628 288.405 29.3267 287.021 30.2518C285.751 31.1769 284.252 31.917 282.521 32.4721C280.906 33.0272 279.233 33.351 277.502 33.4435ZM225.987 79.7926C228.525 76.5546 230.429 73.1316 231.698 69.5236C233.082 65.8231 233.775 62.2151 233.775 58.6996C233.775 57.4969 233.659 56.2942 233.429 55.0916C233.313 53.7964 233.025 52.64 232.563 51.6223C232.217 50.6047 231.698 49.7721 231.006 49.1245C230.429 48.4769 229.679 48.1531 228.756 48.1531C227.833 48.1531 227.025 48.9857 226.333 50.6509C225.641 52.2236 225.006 54.0739 224.429 56.2017C223.968 58.3295 223.564 60.4573 223.218 62.5851C222.987 64.7129 222.872 66.3319 222.872 67.4421V70.495C222.987 71.6051 223.16 72.7616 223.391 73.9642C223.622 75.0744 223.91 76.1845 224.256 77.2947C224.718 78.3123 225.295 79.145 225.987 79.7926ZM207.989 88.6738C209.604 88.6738 211.104 88.535 212.488 88.2575C213.873 87.8875 215.2 87.4711 216.469 87.0086C213.815 85.5284 211.681 83.7244 210.065 81.5966C208.45 79.3762 207.296 76.9246 206.604 74.2418C206.027 76.092 205.566 77.8035 205.22 79.3762C204.989 80.8565 204.874 82.2442 204.874 83.5393C204.874 84.8345 204.989 85.9909 205.22 87.0086C205.45 87.9337 206.373 88.4888 207.989 88.6738ZM228.41 37.329C226.448 37.329 224.891 36.5889 223.737 35.1087C223.16 34.0911 223.045 33.0272 223.391 31.917C223.853 30.8069 224.718 29.9742 225.987 29.4192C226.795 29.1416 227.891 28.6791 229.275 28.0315C230.775 27.2914 232.333 26.505 233.948 25.6724C235.678 24.7473 237.294 23.7759 238.793 22.7582C240.293 21.7406 241.447 20.7692 242.255 19.8441C243.178 18.9189 244.331 18.4101 245.716 18.3176C247.1 18.1326 248.369 18.4101 249.523 19.1502C252.292 20.8154 252.638 22.7582 250.562 24.9785C249.177 26.3662 247.446 27.7539 245.37 29.1416C243.293 30.4368 241.216 31.6395 239.14 32.7496C237.178 33.8598 235.39 34.7849 233.775 35.525C232.159 36.2651 231.179 36.6814 230.833 36.774C230.025 37.144 229.217 37.329 228.41 37.329ZM107.389 57.7282C107.735 57.0807 108.024 56.3405 108.255 55.5079C108.601 54.6753 108.774 53.8427 108.774 53.0101C108.774 51.4374 108.37 50.0497 107.562 48.847C104.793 51.2523 102.313 54.3515 100.121 58.1446C97.9286 61.8451 95.9673 65.4531 94.2367 68.9686C96.8903 67.8584 99.3708 66.332 101.678 64.3892C104.101 62.4464 106.005 60.2261 107.389 57.7282Z" fill="white"/>
</svg>
